<mxfile host="app.diagrams.net" modified="2022-01-24T15:26:27.787Z" agent="5.0 (X11)" etag="_8nZLJoYX15AOe2CBr8M" version="16.4.5" type="github">
  <diagram id="tI2RColmlJfMdDp1IqZ6" name="Page-1">
    <mxGraphModel dx="868" dy="437" grid="1" gridSize="10" guides="1" tooltips="1" connect="1" arrows="1" fold="1" page="1" pageScale="1" pageWidth="850" pageHeight="1100" math="0" shadow="0">
      <root>
        <mxCell id="0" />
        <mxCell id="1" parent="0" />
        <mxCell id="S8LI0opB0eV1xwAURxjo-7" style="edgeStyle=orthogonalEdgeStyle;rounded=0;orthogonalLoop=1;jettySize=auto;html=1;exitX=0.9;exitY=1.033;exitDx=0;exitDy=0;exitPerimeter=0;entryX=1;entryY=0;entryDx=0;entryDy=0;" edge="1" parent="1" source="S8LI0opB0eV1xwAURxjo-1" target="S8LI0opB0eV1xwAURxjo-6">
          <mxGeometry relative="1" as="geometry" />
        </mxCell>
        <mxCell id="S8LI0opB0eV1xwAURxjo-1" value="&lt;div&gt;main function&lt;/div&gt;" style="rounded=0;whiteSpace=wrap;html=1;" vertex="1" parent="1">
          <mxGeometry x="365" y="160" width="120" height="60" as="geometry" />
        </mxCell>
        <mxCell id="S8LI0opB0eV1xwAURxjo-2" value="" style="endArrow=classic;html=1;rounded=0;" edge="1" parent="1" target="S8LI0opB0eV1xwAURxjo-1">
          <mxGeometry width="50" height="50" relative="1" as="geometry">
            <mxPoint x="425" y="100" as="sourcePoint" />
            <mxPoint x="440" y="150" as="targetPoint" />
          </mxGeometry>
        </mxCell>
        <mxCell id="S8LI0opB0eV1xwAURxjo-3" value="" style="shape=image;verticalLabelPosition=bottom;labelBackgroundColor=default;verticalAlign=top;aspect=fixed;imageAspect=0;image=data:image/png,iVBORw0KGgoAAAANSUhEUgAAAhsAAAAaCAIAAACRhglmAAAAA3NCSVQICAjb4U/gAAAYzUlEQVR4Xu1dCVwTR9vf3RyEhIQz3JeACN6AtyjetvVA61urqPWoR/tar1qvWs/a+morttparXfrUeuttR54gKhcIqKIgCCHhECABBJCzs1+u5uAQHYCofSr1qz+gDwz8zz/+c+TeebYnYWnTRgvU8mrZCoMIi5GyKIj68JUKOvh5mnR91WEiN3/86NLGLv++1WMiO49atU3S8J1ZxdN+zFDSxZAfKft3j04Y+P6Y1kN9eAJXlE//hzyZ9TyixK9ath+yLoDczXfL9gSW+X81pqdy/sKd09f8HuJPhXxmbp7/wzk17lzDz/XkZqBdmmBY2aH1iQkPS2RczpOXrUqJHHxh/uyUbIQ1FZ69NrM+GlUX8gkTqBmIz2w/Zitx95Jmzv/2AucGPbwr05H5S2YfSDXCtguiHvk1t0fsq589+P5DDHDq+9Q98xDF3NQCCBndZ63+9shgsPRB2KLtHa+3QcP4d3d8mu6FoQfJDc0gFG7O43bdnxBh9zTm785U2g3bNGaiards764WmFod2P/AeEBUkYkwO4Td+7vfW3KZxfEesUQxApddPDrkAfbNh/NwIInr1rW+/GamdEptURuRv/VZz6p/nzaD4/1XmxSNSg/ACcT0C6oSf+n+r5Qt7vONuKLg8tcr2zack7gMnrJ55O6CPaZ+h4B6wZqR8ID9/a+Pn3x6TKI13f53rXtLi1c+MsztV6RsX+6TPjuyH8D8s7+b+vpQseRn64ZJ905c12MBALIDc1jrAfg56brC6ydkX4yJ+w4ZuvRKZVbluy8V6lGNRptnbMY9xtAzZYEUwzQD548rbsfPbGu39c8uZOkiRyNXP4hgwwn+FWbsO/brivn/3xqTm2V8MGZPxJ6vN1Ao67w7M4jnVetPjiebdCDBMzat+eDdjQyU/DZW0shzeMfPlh4Sii59f2X3isW7zk5X1n+ND7lGerZQI/xn0C7mFLD6zVtdZSHI0tdnhP/09fH8d4SfLWVHpAFGqi+ZuIE6SkFGAbWC9KVXNi4Apn30YdbDjgzaoofXd17lwzSALkyY/+K9ar/zlq6Y5YdJC17nh53QkTkB+EHyE3hR3OuxbOith4KYFWmn9sUfc0QTghMRv6DgfAAeACKlWl71/64YNHs6MMOkCT3zp61e+6T4aStLgBOULtgAP83xRsVVKz69s6NPiuWrt73rjov5sS1rOBgnSn/p9JBygDt2DA/Jk3cvSPu5y+WTkpYeBSbSvm9JvwTzb5623rKtwf9mZVpZ7/67joxiIQB8r+7viD9QiJ4YOKbh3/pu2zx4YtrGWjyN/9Z+Wd1XUwB8mRJMIcBOCIiwpz8lrwWBiwMvDoM0NrP2rfd55eJ6261abA0p4IwPhc5FBE/c9Gp0kadM0hujm6jvK9AfY0wWQQNGUAsdFgYsDDwejFgHTT47R6+9tYsXrthE4fZpcY9VLxeFTAT7ZtWXzPpebWy018tOBY0FgYsDDTHAMz2f2vRwgWuXERWmHz2y+23DDuVzZV7XdPftPq+ru1E4raser3WzWcBb2HAwoCFgVeIAcsc5RVqDAsUCwMWBiwMvFIMxMbGUuIZNGgQpdyyj0JJiykhzAtyDOxt78Qxlenfn4ZYufd2ah/CYRH39FguCwMWBiwM4AxYIoq5bgAjzgN8+r3v7uP4ZnSlTHbwjOD3t4RO3x42ba6jVX2lGZyg//j0G2XP07sQzAyaHzrjuzDi/7bAIDtzaTXOj3hPWj7NX38TunHq6yeBncZFX/7xffembsPos+LCTXwkGHt977R2lu8jZOU/du2Bc9du3rp5akkoo76d8edLfrr8zRj7lw74D/EGai+Q3FxPbUaPEQ+N9MP88dsv/zDRyMnMBdH6/CAPhhnt53SfMs+JTTYg04vff1HnqG9CotYGDRjIYTb9UrTePr6T4z2t+4zt3foFkUppvL4bw2Z84+djejkOpjn29R6+ousUHNL64CGDOCY6HqSj7+TtZE8XHTplU+dRM9y9ndqyAq2pvL7/3Rbc1RWApDH/ULP5WwjCfD2MIJeQbmymVPosXpSVoUSBd++jknRR5u1KUU0LobQkGwID6GlJ4UZ5YPf/7Phj12QvkL+brbDtCmgSt4wdMmjUV3c1bafTbE1N+aEFz/v18vqIlx262Rr1BczXw+49ZXan3J0zx48ZM31X+ktOMPnzxOv3iwzPWeLa/xbemvJAUW2QXZCcQoVJUTN6jHgwqez/PxHQccOuTkGBuoIDklq8B7Gx7zPH24+LqWVayJbjPz6AVpMZ++Af9H/YdqD/yHFcJoSppRqMw/YIsKLFyk0/5aWTKkRlqJUzm9/dLcIJ+yNaKNE/mm8u5xiau/dBrrmlzMzfiH8zy7ZtdiaPQYcxSbIgIUbRKJqoxDeXiV/awtCyO8VlCKurn4Oz9V+EAHOCIhd8Mim8gxNjSo9hRY9OR391Ps908zZjkdEpMtL7weG1xa1r82a0v/7Jrw4/MM+ZzxDEpJdU1zQevGDixMPbEv9mql8dHoAV/X/hAWi9+QTqiIK4DXCyK6+4Sx5twunO9+FCyozCCwcqsRC/yGn2Xv3tbdJE6jD/96fa1qYIC+2cOvjSlM9FCUdKSmSETat2zr3GOnt5MhGlqixVmHxJXK3Bz2vxHLfQhZMrytDYBgcy1Pml8YeEZa14MMuK13kol4mpC47nxKeoUCbLOxBptr/RZgtijlajLLsBX/j7u3FdeEJJFWQT0eHd8RxxXLHQmR8YYEVXSlO+z82qgJg+zr3Gu3h7MOCa2hdxxclxNUrCvfHpVLchYeR0SKd8/F1mapHB6SnrS2SjW3m/5dm9J9fWGlOU1Ty/8iLticZ9ctdhvenk4JsdujI0FB9tPcj77ZeqBlVoyD/sAc4PsAvbdHbvM8rR1ZkOKTXSInHqUYGgxpQeAovRpW8v/aKW46iO00dBaGbB73srVYhNr9WBHR2IGmAVZZc3F4uaY98cnPgRKV1nrZ3hcGbZsnvje6btj+OEuamBMyMj1FQCmNf/3RG0G+vjq0g9iPvAefMnD+joy2dryrPif/tx18UcOZnC8h+9cMnUgYGOdEV5fvrJ6A1nn5FVA8npLn2mL5jzTpi3jVqY/uee6P13S7WMvqtOzednyH272WWfOFky4INRTvm/fr78aBYxuoYR10GLfxg/or215PGFHf/bl1hhMsRR6ScrSJ4iU7Njj2rk7He68BHx/Z8/W3NBYFIXWY76asQP4h2168DcILJj2BATi//UJG01PFsOwkPFjyk9lDCI04Z+X9qTnBZ1OXXrU0hXcf6zydvxoStj4Lo/NgzGF1w1KdvqT/eg1GEQmoOzgZ4W+4kp203TaIEf7t/e/sTUVZfJe7xh2xGbjn1QvGzGT5k6oB821WH4DOIBtg/9YPniCaHOmuc3Tj1hNDevN9//AXgoxZQRhWcfHEorPVdOjuJhB29rGn6Ax6MqYr6SWSXS2Ht7cBzoEHk6CGwT5uyWJi54YR8Q6DZgjPzssWqNk/OgeV6usFL4SKx24HpF+A5naM+flOq7HVqAvVuK+EWZk197t9Ce4itxL6exlACNhQgeD2wgXWnlo1QVoVOtLMowztVyCewQ7sERVBcmypgeTDodhu0dB8718rTWSvJqMDcbv8gAlvZpzB3i4DNZdsVTBc22o6N7g30CGFBfDURzi2w/KNwKVijL8tQ0vo1fB6uHTzQ1ORVZGoZ9ZwdXW7T8gaRSgaFFqkadQSP+IVB+oF2eQ++prh5a+fO4CoUVi9+BY8eCBDVAPSCmMGlN3h2E62Hn789QFYgLilGdkFz1wjRlKeUIl+XRh2cDKtxAbi5OmOfTzl6QlFAgD8cwdVXh02uFLbBiIgviPnJCb+HFjx4bzhWCbWyxzDPfHs4SyJh+7yxc9eW8kunR95UQ4hG55JPOhVsXf/moxtq9Y28Xw1cTJGd1mrX58x4ZuzbMfVhh0zVq2Yovqj5ZeEKIhyw7NG3j548+2j7n7YLlCzcP//rjEUEnsh7hEGmBIwY+2bJyVr7tsMVrV39WPGvVn+XAaEmtv8jgKojtoKkjzuxYNmmVxCYo1MVwLp8JGoBJjfnRFR37aNgxfLXqULTbvrHr416uRYDwUPMD1gMAgkkuLht+keJ8Nkhze8PIwV+S58UByjYSm4fzZdGW+klLMLzMg+bduVsxPrwn78o1/MAXvL8M71J17/gz/Dw5GsAPgfqpeYDtBy9a8x73z03zLok8xy9bFUzLvw1UQSSY6/8mlRklkhEFsWXZqJVSw4O3sH0fZ3eV5GaahoypNJYNPipHFTLSkzVahRIfW9NZVgZVuufCW0dENWw5c0077072fLpU1YfvYqUT/JZzPQnvVDk9VnboHObkcUFaRJbQCUR3T5TKOzO8ZjrYuuHjDpMRBYZp+tE8UVKHkkEJ5jHw3R2sXCE1HpNR5dcDpXfwGD7flclnO9hAaLGsTGrATyjOF1zeJSK1wTAC2Q7lu3MwyfXcP/6QQ+5u7yx1dw13dLhXUqnDF3+Kk1LwmNgwosCOgPoW0G2De1khKmlSdO5T/CArmM5zgjAIq04VJD1gBrk4uHLVL2JePGp8dgWOoRH/wPywE8BuIc8KXxBEi6syrpZK8E4UQchZVbN2XxKi/wsTV6WfqeIMYPn50+VPhEkx5DwNv3SqwssvCq0chvRsSUQB8gPACWFVmY8EH0d+HEWT8RgP8Y2P5mZATYE3+czsNG6sV+rhy/UrXmjOxd05hkxlx84/nDC1iwftfh6KOPKdsJI/H+SV4XOZitKCOj0AObvXu6OsrqzeeSWD6HTL9vwW8dv4cI+TJ3HApRkPcp8xs0Q1DumPC7PdBdw+fCapDZPfO7L/dh7+TTt+4Opb24b0cbh8sRIQUgD6yfNCiYtRevWno6lC/FPt43sivaw1P434ASgB4gHwA1Dzt4tbi9OIB5CfmFkDPKTck4wJD7OJuSnD2KHh3WoSTmUTLtM2+mFur2G90JtrDicWqKGC/b/ED99o+rxEoN22aUd6u35RNH4QLXdH9hN9RGFyg/paSxMKS+pOiiSPfANdmEJQS8xdFApxBebjyrThICw3JgIjnpO7zphcVwpl2vAMWrAqda0O0ilQPEjTac3svFr19J8YZavfdUezCk/uqajr1ajxmMiP8KxduZhGri5PFz++WNpgEwWTPpPpwyX+jcd0iK07C8GH4dm1RE9WJiuVYI6O1rYMqLKekEbGEVtAfWG2tR0DQnOrCvV9BqaVllPDbiQ15p+6ENAuJpIWl7t2DvAY+6WzpED6IqEs46HiL/bK1BBaJDUfJ5p75PO1qhmTRvbr6jP8dPi933duP5rW2sfCiZWMYS9XvAjIMKfDmI8/eq9/kJsti47A+Py71JrwTm1O7LWiLQv37Q5Pfpj5JOnGjQdCfPQEktPc/HxtPIb+EDOxngadUGhHbv2r1XiPAas1xG8MP+AWYjD1axE6YcELvRuhxUUCqL+HMwJVUrcNUL8houBum11qPKaqB9PCPyj4oS4JxgPijVrP3y1tJU4KHkB+Ym4NtM/u3JN+HR7Gvhmr694/pDZh/VNy4tc2+hFnD1ekOOWFfi6pKsoXNHMCL9Bu27Qjndeuk7Y8WVAoMfBkHeLczlp2P4EIE8SFoUoZ7vKINZccLTLo1iz8O6ZV1q0gIDR9qID1I2GCKPwfhlakVgjrj/XUaSrwbV39Axz4KN1gyvAL08886uIW8RvFAOM2EpFUg4Oz4eOIJC3fXVen5J7A91Eam9Z/QuuPtKZKbVYGrC+7roLNqmiQoSn/4LJAu+qa1B1ZlX0dfYJ4rv6O3drzeLrMuPSWHdsONtfSFLLlGg5CWoFTK0o5vjX17qTlbwtu1UauXL+kbAZ+PLoJnwCCQzzemtCrwYoXnpHZffaGeQG3v160LvmFVMMYuPbcRwa4yowD86fEhvTuEdJj0KwtEwd8N2fVpTLcKqWcMKl5sP39pedfHqRMyBh9jcDg81PqoZMpNwfpr9OOqdV/cXuJ0ETBjxH8lwKq+uKplPy0prVMmDYryXycFDyA/cQsLHhmbc6dRPnG/iGcRG14mDpxUybZ+7eZfpxpna5ubIHqF3JMQATbpWxHE5ook+jpR1c3SECsAwdwtQ+f51fXCzFxkQLtyeV3sWPfr8Q62jnj4+7ncnFdB8Xy5zkwZJV2XFcnGFOp5XKdqkyNdWSgxeVpseT2AEzjeTFVcghyokQAKaQaHWzlFMBmZMkhTy7+5KBOrFaQDKmSc39NblpKVyIrq3HhuTp2Da28c9+wMy/IIKYUlPmblm/mM1YtVOpCrF0C2bRncsiF62oP68oV+J0FgEtXDagvhinxUjxvOx+Hiix8moLz4AjLKvThCyM6E3yNrsldzxT8680a5wfahWg0hqY2/zr+H2J08n13toNze2skXT8NM9YDqFbrxJhOg69iwgxrGxjSb4NDrcNJmsfQ2pL7v194OOnjDp60GInpmEjnODraQDWVlfIG+ZidIsd6ph56ueKFg3MKbG/37OrJe0VSvAkQdx9PBlxZX1tt1fOUq/j/s0nVv2zp3cnqUhk5TYEo5MLnBerIzsGcC/FN7koyQR3i5uNpBRXiqwE0T28PqDSufpaBarUYk9Xgvny0NfpNmG4pPwYVeB+Frzjji+J1jm8aDwU/ekVGekxAbE2SmbwBcJrtJ5CRXQN4SrkmKz5BuS68Z09ND23i5if6GYpJPwTqN+JIJxII0SFufASqwHtAuou7S+M75Ju2u7n+b2SwGUHjnXl6e36gqyrnuLRh/yl/WF44guvXxWfcBg+Iw2BC2oK7EvxLZFgZdnIe9hlXYc22Z0CKh1UiFNMkiUT9vFzGBo0JkknwG4PcOY6a8kvfKqqooWDijCrZYFf7IR0m9tJCbAYDwaQZ1WIT83m1NOOGzGcct92UTh6j8buHmfTs/BNkRGmLC6tOKS+J8PEcGjDapxZz5zogaMmdSjAerAJQX1Vt1dP7Ko9+vF6fdvQpUMGObE5O/tkzMmLwhqE1YhSDWYHv+VoVarXFFakpxL25lPwTlaLKD7Kr5jkOXuKky5aJJTpWAA/f8KqsrBvNUukxdzDJ8OV3D2Hh+2v2eDi04XaM9PLVacvulBbiY3VMIxZoMH9Wh0ntrPI0WnHV49syc3HCDgOmT3LMikmpsaIxbP1HDOukzd1b3FzrIh7jNzd+YxsePGz7TxiG1N/jpfcOrKq4ROHZtTv/IvEGubdnjvZDdOlkUqM3UA3qbleaKCC/BwB5bfLZS9XffrJqkrrRm8oy9Waof8Kc/lNnhguJN4/NHMFN3Z1kCLv4Qll+brHL4JG9r1bWvbkOoL+Vk80W86MHrqsoFUFDe/ZxS6x/MxUQD4AfUhGFHmpmWis1gzcgTjP9hIRqbFdfA2q5JvNOombdrDkolrT5iX7nGOyHJvUb8YTJUm6kfDz33QGniTcZDp0QwYfxm0PqL6N2B9sF8mNk05SgYUSBGe0GOjCfFT8zvFaxrlyNJHFvkW6Cqzc+mpPK82JfJKXVRxxMniLItXXuEqiTZYkSLlYRXVeZ6NYeKGwU38vPzhbf0q9U5KfI6hbRKLDoCoSxJ2i9htnzHemwUln6sCzpSo3JDgR/51DeNY1H6EA7vhMdlitKcsmbvtrowiQV8XuRXuNcvPy4+N3Dzy8UJ99teCcNsYrT8MJA9cXQknPP4pRe+N3DLsFMtagmN6dej054qzjXBR8g2wf5wJo0WVqKAgXxTxijyg+wiykVJXlav/YOLlwarFKXJxUl3TNp10zeaK52QRE8w+SKxfYdyIZ0ajgDjyi4Ikx0o+iJm1egn30HT0hXoM6OlynNxakoK2e8PWPDdB9nOytdn6L75zdF32jNkhexktGz8YoXUVXQG7GAb6ACvZkK8MYtU3T+I28eAwEC8ENmp3ozFai+IH5AekB4AHKTb9Ay541tIJwAHoB+QuKkeFOcKfm/8E2GgOZqcPYw7OY2+lO++MCTu09b1D8zexDPo8hvZp+7IDcxowAYfm3F+EN8SzqGuisebM16RCyyt9llLv9tZvgVVYT4Rq2MSN5yOLdF3mhcCWbXTw5udD44Y931+omAcaY3WGLhR9/4Fh5MfgnMPSmywRzFiq0tulyUX/fCdpNm3sRE/WoPjcvx9YCxmtrK1gybTfH2z/BPQ5iUh+qgurbY+DVV32bTMAzVtT5kw/as0kvfX4qzhBNqoi386Hmx8EDtH62V/oX3o7xpcxRWn/bvTeLRMExTJc89l5+c3ga32rS22dqsHK2bX9RMYkOkyYVm5J/YJzb5rFDTIpbPFgYsDPzrGDB3jvIXIsq/jrs3sUKwDcvZleLcBkyuFAnJR1wtl4WBtmOA5j/iwxEUB0qjBTcOXc6xjGDajum20mSJKG3FpEWPhQELAxYGLAyYx8AreLq3eRWw5LYwYGHAwoCFgVeEAUtEeUUawgLDwoCFAQsDrz0D/wcSbM8HxtXYPwAAAABJRU5ErkJggg==;" vertex="1" parent="1">
          <mxGeometry x="240" y="80" width="339" height="16.35" as="geometry" />
        </mxCell>
        <mxCell id="S8LI0opB0eV1xwAURxjo-9" style="edgeStyle=orthogonalEdgeStyle;rounded=0;orthogonalLoop=1;jettySize=auto;html=1;" edge="1" parent="1" source="S8LI0opB0eV1xwAURxjo-6" target="S8LI0opB0eV1xwAURxjo-10">
          <mxGeometry relative="1" as="geometry">
            <mxPoint x="425" y="380" as="targetPoint" />
          </mxGeometry>
        </mxCell>
        <mxCell id="S8LI0opB0eV1xwAURxjo-22" value="success bool indication" style="edgeStyle=orthogonalEdgeStyle;rounded=0;orthogonalLoop=1;jettySize=auto;html=1;entryX=0.25;entryY=1;entryDx=0;entryDy=0;dashed=1;" edge="1" parent="1" source="S8LI0opB0eV1xwAURxjo-6" target="S8LI0opB0eV1xwAURxjo-1">
          <mxGeometry relative="1" as="geometry">
            <Array as="points">
              <mxPoint x="395" y="260" />
              <mxPoint x="395" y="260" />
            </Array>
          </mxGeometry>
        </mxCell>
        <mxCell id="S8LI0opB0eV1xwAURxjo-6" value="ProcessFile" style="rounded=0;whiteSpace=wrap;html=1;" vertex="1" parent="1">
          <mxGeometry x="365" y="270" width="120" height="60" as="geometry" />
        </mxCell>
        <mxCell id="S8LI0opB0eV1xwAURxjo-8" value="&lt;div&gt;filepath&lt;/div&gt;" style="text;html=1;strokeColor=none;fillColor=none;align=center;verticalAlign=middle;whiteSpace=wrap;rounded=0;" vertex="1" parent="1">
          <mxGeometry x="485" y="240" width="60" height="30" as="geometry" />
        </mxCell>
        <mxCell id="S8LI0opB0eV1xwAURxjo-11" style="edgeStyle=orthogonalEdgeStyle;rounded=0;orthogonalLoop=1;jettySize=auto;html=1;" edge="1" parent="1" source="S8LI0opB0eV1xwAURxjo-10" target="S8LI0opB0eV1xwAURxjo-12">
          <mxGeometry relative="1" as="geometry">
            <mxPoint x="425" y="500" as="targetPoint" />
          </mxGeometry>
        </mxCell>
        <mxCell id="S8LI0opB0eV1xwAURxjo-10" value="first pass" style="rounded=0;whiteSpace=wrap;html=1;" vertex="1" parent="1">
          <mxGeometry x="365" y="380" width="120" height="60" as="geometry" />
        </mxCell>
        <mxCell id="S8LI0opB0eV1xwAURxjo-13" style="edgeStyle=orthogonalEdgeStyle;rounded=0;orthogonalLoop=1;jettySize=auto;html=1;" edge="1" parent="1" source="S8LI0opB0eV1xwAURxjo-12" target="S8LI0opB0eV1xwAURxjo-14">
          <mxGeometry relative="1" as="geometry">
            <mxPoint x="425" y="590" as="targetPoint" />
          </mxGeometry>
        </mxCell>
        <mxCell id="S8LI0opB0eV1xwAURxjo-12" value="second pass" style="rounded=0;whiteSpace=wrap;html=1;" vertex="1" parent="1">
          <mxGeometry x="365" y="470" width="120" height="60" as="geometry" />
        </mxCell>
        <mxCell id="S8LI0opB0eV1xwAURxjo-15" style="edgeStyle=orthogonalEdgeStyle;rounded=0;orthogonalLoop=1;jettySize=auto;html=1;" edge="1" parent="1" source="S8LI0opB0eV1xwAURxjo-14" target="S8LI0opB0eV1xwAURxjo-21">
          <mxGeometry relative="1" as="geometry">
            <mxPoint x="280" y="700" as="targetPoint" />
          </mxGeometry>
        </mxCell>
        <mxCell id="S8LI0opB0eV1xwAURxjo-16" style="edgeStyle=orthogonalEdgeStyle;rounded=0;orthogonalLoop=1;jettySize=auto;html=1;" edge="1" parent="1" source="S8LI0opB0eV1xwAURxjo-14">
          <mxGeometry relative="1" as="geometry">
            <mxPoint x="425" y="700" as="targetPoint" />
          </mxGeometry>
        </mxCell>
        <mxCell id="S8LI0opB0eV1xwAURxjo-17" style="edgeStyle=orthogonalEdgeStyle;rounded=0;orthogonalLoop=1;jettySize=auto;html=1;" edge="1" parent="1" source="S8LI0opB0eV1xwAURxjo-14" target="S8LI0opB0eV1xwAURxjo-18">
          <mxGeometry relative="1" as="geometry">
            <mxPoint x="550" y="690" as="targetPoint" />
          </mxGeometry>
        </mxCell>
        <mxCell id="S8LI0opB0eV1xwAURxjo-14" value="&lt;div&gt;write outputs files&lt;/div&gt;" style="rounded=0;whiteSpace=wrap;html=1;" vertex="1" parent="1">
          <mxGeometry x="365" y="560" width="120" height="60" as="geometry" />
        </mxCell>
        <mxCell id="S8LI0opB0eV1xwAURxjo-18" value=".ent file" style="rounded=0;whiteSpace=wrap;html=1;" vertex="1" parent="1">
          <mxGeometry x="490" y="680" width="120" height="60" as="geometry" />
        </mxCell>
        <mxCell id="S8LI0opB0eV1xwAURxjo-20" value=".ext file" style="rounded=0;whiteSpace=wrap;html=1;" vertex="1" parent="1">
          <mxGeometry x="350" y="680" width="120" height="60" as="geometry" />
        </mxCell>
        <mxCell id="S8LI0opB0eV1xwAURxjo-21" value=".ob file" style="rounded=0;whiteSpace=wrap;html=1;" vertex="1" parent="1">
          <mxGeometry x="220" y="680" width="120" height="60" as="geometry" />
        </mxCell>
      </root>
    </mxGraphModel>
  </diagram>
</mxfile>
